<svg xmlns="http://www.w3.org/2000/svg" fill="none" viewBox="0 0 24 24">
  <path stroke="#464455" stroke-linecap="round" stroke-linejoin="round" d="M18.5 7V4m0 0L20 5.286M18.5 4 17 5.286M16 8a4 4 0 1 1-8 0 4 4 0 0 1 8 0Zm-6.682 6h5.364c.483 0 .724 0 .94.046.747.16 1.393.72 1.755 1.523.104.232.18.507.333 1.059.183.662.275.993.287 1.26.044.943-.465 1.794-1.221 2.042-.215.07-.505.07-1.084.07H8.308c-.58 0-.87 0-1.084-.07-.756-.248-1.265-1.1-1.221-2.042.012-.267.104-.598.287-1.26.153-.552.229-.827.333-1.059.362-.803 1.008-1.363 1.755-1.523.216-.046.457-.046.94-.046Z"/>
</svg>
