<svg xmlns="http://www.w3.org/2000/svg" fill="none" viewBox="0 0 24 24">
  <path stroke="#464455" stroke-linecap="round" stroke-linejoin="round" d="M11.846 20a7.745 7.745 0 0 1-4.612-1.528 7.994 7.994 0 0 1-2.85-4 8.15 8.15 0 0 1 0-4.944 7.994 7.994 0 0 1 2.85-4A7.745 7.745 0 0 1 11.846 4c1.657 0 3.271.535 4.612 1.528a7.994 7.994 0 0 1 2.85 4 8.15 8.15 0 0 1 0 4.944m-1.141-1.583 1.09 1.778L21 13.333m-7.41-4c0 .982-.78 1.778-1.744 1.778-.963 0-1.743-.796-1.743-1.778s.78-1.777 1.743-1.777c.963 0 1.744.795 1.744 1.777Zm-3.303 3.556h3.118c.28 0 .42 0 .546.02.434.071.81.32 1.02.677.06.103.105.226.194.47.106.295.16.442.167.561.025.419-.27.797-.71.907-.125.032-.293.032-.63.032H9.7c-.337 0-.506 0-.63-.032-.44-.11-.736-.488-.71-.907.007-.119.06-.266.167-.56.088-.245.133-.368.193-.47.21-.358.586-.607 1.02-.678.126-.02.266-.02.546-.02Z"/>
</svg>
